<mxfile host="app.diagrams.net" modified="2020-08-02T03:42:03.591Z" agent="5.0 (Windows NT 10.0; Win64; x64) AppleWebKit/537.36 (KHTML, like Gecko) Chrome/84.0.4147.105 Safari/537.36" etag="F04CxoDkXHM89G4Ru_Ks" version="13.5.8" type="github">
  <diagram id="BlNZQTCQzSflpBD7ECJl" name="Page-1">
    <mxGraphModel dx="658" dy="433" grid="1" gridSize="10" guides="1" tooltips="1" connect="1" arrows="1" fold="1" page="1" pageScale="1" pageWidth="827" pageHeight="1169" math="0" shadow="0">
      <root>
        <mxCell id="0" />
        <mxCell id="1" parent="0" />
        <mxCell id="i4Izgy9UsieF2bt6bf6w-7" value="输入：120" style="text;html=1;strokeColor=none;fillColor=none;align=center;verticalAlign=middle;whiteSpace=wrap;rounded=0;" parent="1" vertex="1">
          <mxGeometry x="140" y="100" width="90" height="19" as="geometry" />
        </mxCell>
        <mxCell id="i4Izgy9UsieF2bt6bf6w-10" value="" style="edgeStyle=orthogonalEdgeStyle;rounded=0;orthogonalLoop=1;jettySize=auto;html=1;" parent="1" source="i4Izgy9UsieF2bt6bf6w-8" target="i4Izgy9UsieF2bt6bf6w-9" edge="1">
          <mxGeometry relative="1" as="geometry" />
        </mxCell>
        <mxCell id="i4Izgy9UsieF2bt6bf6w-8" value="120" style="ellipse;whiteSpace=wrap;html=1;aspect=fixed;" parent="1" vertex="1">
          <mxGeometry x="210" y="180" width="80" height="56" as="geometry" />
        </mxCell>
        <mxCell id="i4Izgy9UsieF2bt6bf6w-12" value="" style="edgeStyle=orthogonalEdgeStyle;rounded=0;orthogonalLoop=1;jettySize=auto;html=1;" parent="1" source="i4Izgy9UsieF2bt6bf6w-9" target="i4Izgy9UsieF2bt6bf6w-11" edge="1">
          <mxGeometry relative="1" as="geometry" />
        </mxCell>
        <mxCell id="i4Izgy9UsieF2bt6bf6w-9" value="res=120" style="whiteSpace=wrap;html=1;" parent="1" vertex="1">
          <mxGeometry x="190" y="290" width="120" height="36" as="geometry" />
        </mxCell>
        <mxCell id="i4Izgy9UsieF2bt6bf6w-14" value="" style="edgeStyle=orthogonalEdgeStyle;rounded=0;orthogonalLoop=1;jettySize=auto;html=1;" parent="1" source="i4Izgy9UsieF2bt6bf6w-11" target="i4Izgy9UsieF2bt6bf6w-13" edge="1">
          <mxGeometry relative="1" as="geometry" />
        </mxCell>
        <mxCell id="i4Izgy9UsieF2bt6bf6w-11" value="i不小于0" style="rhombus;whiteSpace=wrap;html=1;" parent="1" vertex="1">
          <mxGeometry x="210" y="380" width="80" height="56" as="geometry" />
        </mxCell>
        <mxCell id="i4Izgy9UsieF2bt6bf6w-16" value="" style="edgeStyle=orthogonalEdgeStyle;rounded=0;orthogonalLoop=1;jettySize=auto;html=1;" parent="1" source="i4Izgy9UsieF2bt6bf6w-13" target="i4Izgy9UsieF2bt6bf6w-15" edge="1">
          <mxGeometry relative="1" as="geometry" />
        </mxCell>
        <mxCell id="i4Izgy9UsieF2bt6bf6w-13" value="str = &quot;120&quot;" style="whiteSpace=wrap;html=1;" parent="1" vertex="1">
          <mxGeometry x="190" y="480" width="120" height="36" as="geometry" />
        </mxCell>
        <mxCell id="i4Izgy9UsieF2bt6bf6w-18" value="" style="edgeStyle=orthogonalEdgeStyle;rounded=0;orthogonalLoop=1;jettySize=auto;html=1;" parent="1" source="i4Izgy9UsieF2bt6bf6w-15" target="i4Izgy9UsieF2bt6bf6w-17" edge="1">
          <mxGeometry relative="1" as="geometry" />
        </mxCell>
        <mxCell id="i4Izgy9UsieF2bt6bf6w-15" value="cs={&#39;1&#39;,&#39;2&#39;,&#39;0&#39;}" style="whiteSpace=wrap;html=1;" parent="1" vertex="1">
          <mxGeometry x="190" y="567" width="120" height="36" as="geometry" />
        </mxCell>
        <mxCell id="i4Izgy9UsieF2bt6bf6w-20" value="" style="edgeStyle=orthogonalEdgeStyle;rounded=0;orthogonalLoop=1;jettySize=auto;html=1;" parent="1" source="i4Izgy9UsieF2bt6bf6w-17" target="i4Izgy9UsieF2bt6bf6w-19" edge="1">
          <mxGeometry relative="1" as="geometry" />
        </mxCell>
        <mxCell id="i4Izgy9UsieF2bt6bf6w-22" value="" style="edgeStyle=orthogonalEdgeStyle;rounded=0;orthogonalLoop=1;jettySize=auto;html=1;" parent="1" source="i4Izgy9UsieF2bt6bf6w-17" target="i4Izgy9UsieF2bt6bf6w-21" edge="1">
          <mxGeometry relative="1" as="geometry" />
        </mxCell>
        <mxCell id="i4Izgy9UsieF2bt6bf6w-17" value="cs2={&#39; &#39;,&#39;2&#39;,&#39;1&#39;}" style="whiteSpace=wrap;html=1;" parent="1" vertex="1">
          <mxGeometry x="190" y="650" width="120" height="36" as="geometry" />
        </mxCell>
        <mxCell id="i4Izgy9UsieF2bt6bf6w-24" value="" style="edgeStyle=orthogonalEdgeStyle;rounded=0;orthogonalLoop=1;jettySize=auto;html=1;" parent="1" source="i4Izgy9UsieF2bt6bf6w-19" target="i4Izgy9UsieF2bt6bf6w-23" edge="1">
          <mxGeometry relative="1" as="geometry" />
        </mxCell>
        <mxCell id="i4Izgy9UsieF2bt6bf6w-19" value="sb=&quot;21 &quot;" style="whiteSpace=wrap;html=1;" parent="1" vertex="1">
          <mxGeometry x="190" y="740" width="120" height="36" as="geometry" />
        </mxCell>
        <mxCell id="i4Izgy9UsieF2bt6bf6w-21" value="0转为空格" style="ellipse;shape=cloud;whiteSpace=wrap;html=1;" parent="1" vertex="1">
          <mxGeometry x="370" y="640" width="120" height="56" as="geometry" />
        </mxCell>
        <mxCell id="i4Izgy9UsieF2bt6bf6w-23" value="res=21" style="whiteSpace=wrap;html=1;" parent="1" vertex="1">
          <mxGeometry x="190" y="830" width="120" height="36" as="geometry" />
        </mxCell>
      </root>
    </mxGraphModel>
  </diagram>
</mxfile>
